<svg width="120" height="120" viewBox="0 0 120 120" fill="none" xmlns="http://www.w3.org/2000/svg">
<g clip-path="url(#clip0_676_446)">
<path d="M58.2246 97.7214C58.7596 100.547 59.1136 103.404 59.2843 106.275C56.3336 103.366 54.0709 99.0061 51.779 94.5904C48.9039 89.0511 45.9829 83.4233 41.6 80.458C41.4812 80.3142 41.3639 80.1703 41.2471 80.0271C40.9979 79.7216 40.7511 79.419 40.4983 79.1265C48.7726 79.519 52.9318 87.5354 57.0022 95.381C57.4092 96.1654 57.8153 96.9481 58.2246 97.7214Z" fill="#393353"/>
<path d="M58.2246 97.7214C58.7596 100.547 59.1136 103.404 59.2843 106.275C56.3336 103.366 54.0709 99.0061 51.779 94.5904C48.9039 89.0511 45.9829 83.4233 41.6 80.458C41.4812 80.3142 41.3639 80.1703 41.2471 80.0271C40.9979 79.7216 40.7511 79.419 40.4983 79.1265C48.7726 79.519 52.9318 87.5354 57.0022 95.381C57.4092 96.1654 57.8153 96.9481 58.2246 97.7214Z" stroke="white"/>
<path fill-rule="evenodd" clip-rule="evenodd" d="M60.471 97.7205C59.9013 100.54 59.5135 103.392 59.31 106.261C66.04 99.7796 69.3541 85.8882 77.2921 80.6507C77.6694 80.2044 78.0328 79.7575 78.4115 79.3321C69.3031 79.6584 65.0691 89.2665 60.471 97.7205Z" fill="#393353"/>
<path d="M51.3259 32.2821C51.3259 26.7823 55.0882 22.3584 59.6901 22.3584C64.2898 22.3584 68.0635 26.7848 68.0635 32.2821C68.0635 37.7795 64.2921 42.2036 59.6901 42.2036C55.0881 42.2036 51.3259 37.782 51.3259 32.2821Z" fill="#393353" stroke="#393353" stroke-width="0.21874"/>
<path d="M71.598 42.6679C66.6708 47.0418 62.1347 53.9562 59.7155 59.123C57.2957 53.9494 52.7634 47.048 47.8493 42.6755C49.7614 43.9428 51.6273 45.1184 53.3833 46.0486C55.7276 47.2905 57.8909 48.1034 59.7154 48.1034C61.5399 48.1034 63.7009 47.2905 66.0454 46.0486C67.8051 45.1166 69.6767 43.9381 71.598 42.6679Z" fill="#393353" stroke="#393353" stroke-width="0.21874"/>
<mask id="path-6-inside-1_676_446" fill="white">
<path fill-rule="evenodd" clip-rule="evenodd" d="M32.2892 32.0895L32.2892 32.0895C30.7584 31.5007 29.2046 31.2199 27.8887 31.2173C26.5612 31.2147 25.5194 31.4948 24.9691 31.979C24.7011 32.2148 24.5523 32.4957 24.5323 32.8236C24.5121 33.1572 24.6238 33.5662 24.9315 34.0534C25.55 35.0326 26.9202 36.2638 29.34 37.7134L29.34 37.7134C32.6849 39.7185 36.1762 42.4034 39.2899 46.1023C55.2787 61.9725 57.7529 83.2346 59.0659 102.521C59.1787 103.239 59.2873 103.978 59.3919 104.739C59.404 104.65 59.4162 104.563 59.4284 104.475C60.7432 84.2823 62.8861 61.6142 80.3534 45.1157C83.2414 41.9191 86.402 39.5352 89.4415 37.7134L89.5477 37.8905L89.4416 37.7134C91.8614 36.2638 93.2316 35.033 93.8502 34.0543C94.158 33.5674 94.2698 33.1587 94.2497 32.8254C94.2299 32.4978 94.0813 32.2172 93.8136 31.9816C93.2639 31.4978 92.223 31.2179 90.8967 31.2202C89.5821 31.2225 88.0301 31.5025 86.5017 32.0895C82.8145 33.5078 78.5906 36.3732 74.4139 39.2066C73.7067 39.6863 73.0009 40.1652 72.2992 40.6359C69.8834 42.2566 67.5197 43.779 65.3356 44.8964C63.1564 46.0112 61.1294 46.7371 59.3919 46.7371C57.6545 46.7371 55.6283 46.0112 53.4503 44.8963C51.2674 43.779 48.9052 42.2566 46.4907 40.6359C45.7924 40.1671 45.0899 39.6903 44.386 39.2126C40.2083 36.3772 35.9819 33.5088 32.2892 32.0895ZM59.344 106.044C59.3601 106.171 59.3761 106.297 59.3919 106.425C59.4281 106.134 59.4649 105.846 59.5022 105.561C61.4599 90.6181 64.9449 83.9093 69.6455 80.0991C69.135 55.0569 79.9433 43.6614 89.554 37.901C99.2668 32.0826 92.6291 29.5018 86.4231 31.8853C82.7102 33.3135 78.4612 36.1962 74.2869 39.0283C68.7 42.8187 63.2469 46.5184 59.3919 46.5184C55.539 46.5184 50.0942 42.8226 44.5129 39.0342C40.3377 36.2003 36.0862 33.3145 32.3677 31.8853C26.1524 29.4948 19.5147 32.0826 29.2276 37.901C33.3271 40.3585 37.6443 43.84 41.2083 48.9672C45.9599 55.8559 49.3526 65.702 49.0609 79.9906L49.1392 80.0545L49.1383 80.0991C50.3419 81.0752 51.4661 82.2421 52.5054 83.689C55.5598 88.0003 57.8743 94.7699 59.3115 106.292C59.311 106.3 59.3104 106.308 59.3099 106.316C59.3107 106.31 59.3115 106.304 59.3122 106.298C59.313 106.304 59.3138 106.31 59.3145 106.316L59.313 106.292C59.3233 106.209 59.3336 106.127 59.344 106.044ZM59.3329 105.957C59.3159 105.824 59.2988 105.693 59.2816 105.561L59.2515 105.333L59.3122 106.28C59.3191 106.172 59.326 106.065 59.3329 105.957Z"/>
</mask>
<path fill-rule="evenodd" clip-rule="evenodd" d="M32.2892 32.0895L32.2892 32.0895C30.7584 31.5007 29.2046 31.2199 27.8887 31.2173C26.5612 31.2147 25.5194 31.4948 24.9691 31.979C24.7011 32.2148 24.5523 32.4957 24.5323 32.8236C24.5121 33.1572 24.6238 33.5662 24.9315 34.0534C25.55 35.0326 26.9202 36.2638 29.34 37.7134L29.34 37.7134C32.6849 39.7185 36.1762 42.4034 39.2899 46.1023C55.2787 61.9725 57.7529 83.2346 59.0659 102.521C59.1787 103.239 59.2873 103.978 59.3919 104.739C59.404 104.65 59.4162 104.563 59.4284 104.475C60.7432 84.2823 62.8861 61.6142 80.3534 45.1157C83.2414 41.9191 86.402 39.5352 89.4415 37.7134L89.5477 37.8905L89.4416 37.7134C91.8614 36.2638 93.2316 35.033 93.8502 34.0543C94.158 33.5674 94.2698 33.1587 94.2497 32.8254C94.2299 32.4978 94.0813 32.2172 93.8136 31.9816C93.2639 31.4978 92.223 31.2179 90.8967 31.2202C89.5821 31.2225 88.0301 31.5025 86.5017 32.0895C82.8145 33.5078 78.5906 36.3732 74.4139 39.2066C73.7067 39.6863 73.0009 40.1652 72.2992 40.6359C69.8834 42.2566 67.5197 43.779 65.3356 44.8964C63.1564 46.0112 61.1294 46.7371 59.3919 46.7371C57.6545 46.7371 55.6283 46.0112 53.4503 44.8963C51.2674 43.779 48.9052 42.2566 46.4907 40.6359C45.7924 40.1671 45.0899 39.6903 44.386 39.2126C40.2083 36.3772 35.9819 33.5088 32.2892 32.0895ZM59.344 106.044C59.3601 106.171 59.3761 106.297 59.3919 106.425C59.4281 106.134 59.4649 105.846 59.5022 105.561C61.4599 90.6181 64.9449 83.9093 69.6455 80.0991C69.135 55.0569 79.9433 43.6614 89.554 37.901C99.2668 32.0826 92.6291 29.5018 86.4231 31.8853C82.7102 33.3135 78.4612 36.1962 74.2869 39.0283C68.7 42.8187 63.2469 46.5184 59.3919 46.5184C55.539 46.5184 50.0942 42.8226 44.5129 39.0342C40.3377 36.2003 36.0862 33.3145 32.3677 31.8853C26.1524 29.4948 19.5147 32.0826 29.2276 37.901C33.3271 40.3585 37.6443 43.84 41.2083 48.9672C45.9599 55.8559 49.3526 65.702 49.0609 79.9906L49.1392 80.0545L49.1383 80.0991C50.3419 81.0752 51.4661 82.2421 52.5054 83.689C55.5598 88.0003 57.8743 94.7699 59.3115 106.292C59.311 106.3 59.3104 106.308 59.3099 106.316C59.3107 106.31 59.3115 106.304 59.3122 106.298C59.313 106.304 59.3138 106.31 59.3145 106.316L59.313 106.292C59.3233 106.209 59.3336 106.127 59.344 106.044ZM59.3329 105.957C59.3159 105.824 59.2988 105.693 59.2816 105.561L59.2515 105.333L59.3122 106.28C59.3191 106.172 59.326 106.065 59.3329 105.957Z" fill="#393353"/>
<path d="M32.2892 32.0895L32.3678 31.8853L32.3677 31.8853L32.2892 32.0895ZM32.2892 32.0895L32.2106 32.2936L32.2108 32.2937L32.2892 32.0895ZM27.8887 31.2173L27.8891 30.9986L27.8887 31.2173ZM24.9691 31.979L25.1136 32.1433L25.1136 32.1433L24.9691 31.979ZM24.5323 32.8236L24.314 32.8104L24.314 32.8104L24.5323 32.8236ZM24.9315 34.0534L24.7466 34.1702L24.9315 34.0534ZM29.34 37.7134L29.4527 37.5259L29.4524 37.5257L29.34 37.7134ZM29.34 37.7134L29.2273 37.9008L29.2276 37.901L29.34 37.7134ZM39.2899 46.1023L39.1226 46.2432L39.1289 46.2506L39.1358 46.2575L39.2899 46.1023ZM59.0659 102.521L58.8477 102.536L58.8483 102.546L58.8498 102.555L59.0659 102.521ZM59.3919 104.739L59.1752 104.768L59.6086 104.768L59.3919 104.739ZM59.4284 104.475L59.645 104.505L59.6461 104.497L59.6467 104.489L59.4284 104.475ZM80.3534 45.1157L80.5036 45.2747L80.5099 45.2688L80.5157 45.2623L80.3534 45.1157ZM89.4415 37.7134L89.6291 37.6009L89.5167 37.4133L89.3291 37.5258L89.4415 37.7134ZM89.5477 37.8905L89.3601 38.003L89.7353 37.7781L89.5477 37.8905ZM89.4416 37.7134L89.3292 37.5257L89.1415 37.6381L89.2539 37.8258L89.4416 37.7134ZM93.8502 34.0543L93.6653 33.9375L93.6653 33.9375L93.8502 34.0543ZM94.2497 32.8254L94.4681 32.8122L94.4681 32.8122L94.2497 32.8254ZM93.8136 31.9816L93.6691 32.1458L93.6691 32.1458L93.8136 31.9816ZM90.8967 31.2202L90.8964 31.0015L90.8967 31.2202ZM86.5017 32.0895L86.4232 31.8853L86.4231 31.8853L86.5017 32.0895ZM74.4139 39.2066L74.2911 39.0255L74.2911 39.0255L74.4139 39.2066ZM72.2992 40.6359L72.4211 40.8176L72.4211 40.8176L72.2992 40.6359ZM65.3356 44.8964L65.4352 45.0911L65.4352 45.0911L65.3356 44.8964ZM53.4503 44.8963L53.5499 44.7016L53.5499 44.7016L53.4503 44.8963ZM46.4907 40.6359L46.3688 40.8175L46.3688 40.8175L46.4907 40.6359ZM44.386 39.2126L44.5088 39.0316L44.5088 39.0316L44.386 39.2126ZM59.3919 106.425L59.1749 106.452L59.609 106.452L59.3919 106.425ZM59.344 106.044L59.561 106.017L59.127 106.017L59.344 106.044ZM59.5022 105.561L59.2853 105.533L59.2853 105.533L59.5022 105.561ZM69.6455 80.0991L69.7833 80.269L69.8664 80.2016L69.8642 80.0946L69.6455 80.0991ZM89.554 37.901L89.4416 37.7134L89.4415 37.7134L89.554 37.901ZM86.4231 31.8853L86.3447 31.6811L86.3446 31.6811L86.4231 31.8853ZM74.2869 39.0283L74.1641 38.8473L74.1641 38.8473L74.2869 39.0283ZM44.5129 39.0342L44.39 39.2152L44.39 39.2152L44.5129 39.0342ZM32.3677 31.8853L32.2892 32.0895L32.2892 32.0895L32.3677 31.8853ZM29.2276 37.901L29.34 37.7134L29.34 37.7134L29.2276 37.901ZM41.2083 48.9672L41.3884 48.843L41.3879 48.8424L41.2083 48.9672ZM49.0609 79.9906L48.8422 79.9861L48.8401 80.0927L48.9227 80.1601L49.0609 79.9906ZM49.1392 80.0545L49.3579 80.0589L49.3601 79.9523L49.2775 79.885L49.1392 80.0545ZM49.1383 80.0991L48.9196 80.0947L48.9175 80.2016L49.0006 80.269L49.1383 80.0991ZM52.5054 83.689L52.6839 83.5626L52.683 83.5614L52.5054 83.689ZM59.3115 106.292L59.5298 106.306L59.5311 106.285L59.5285 106.265L59.3115 106.292ZM59.3099 106.316L59.0916 106.302L59.527 106.343L59.3099 106.316ZM59.3122 106.298L59.5293 106.271H59.0952L59.3122 106.298ZM59.3145 106.316L59.0975 106.343L59.5328 106.302L59.3145 106.316ZM59.313 106.292L59.0959 106.265L59.0934 106.285L59.0947 106.306L59.313 106.292ZM59.3329 105.957L59.5512 105.971L59.5525 105.95L59.5498 105.929L59.3329 105.957ZM59.2816 105.561L59.4985 105.533L59.4985 105.533L59.2816 105.561ZM59.2515 105.333L59.4684 105.305L59.0332 105.347L59.2515 105.333ZM59.3122 106.28L59.0939 106.294L59.5305 106.294L59.3122 106.28ZM32.2106 32.2936L32.2106 32.2936L32.3678 31.8854L32.3678 31.8853L32.2106 32.2936ZM27.8883 31.436C29.1755 31.4386 30.7029 31.7137 32.2107 32.2936L32.3677 31.8853C30.8139 31.2877 29.2337 31.0012 27.8891 30.9986L27.8883 31.436ZM25.1136 32.1433C25.6031 31.7125 26.5778 31.4335 27.8883 31.436L27.8891 30.9986C26.5446 30.9959 25.4357 31.2771 24.8246 31.8148L25.1136 32.1433ZM24.7507 32.8369C24.7666 32.5747 24.8833 32.3459 25.1136 32.1433L24.8246 31.8148C24.519 32.0837 24.3379 32.4167 24.314 32.8104L24.7507 32.8369ZM25.1165 33.9366C24.8242 33.474 24.7341 33.1103 24.7507 32.8369L24.314 32.8104C24.2901 33.204 24.4233 33.6585 24.7466 34.1702L25.1165 33.9366ZM29.4524 37.5257C27.0409 36.0811 25.707 34.8715 25.1165 33.9366L24.7466 34.1702C25.3931 35.1937 26.7994 36.4464 29.2276 37.901L29.4524 37.5257ZM29.4528 37.526L29.4527 37.5259L29.2272 37.9008L29.2273 37.9008L29.4528 37.526ZM39.4572 45.9614C36.325 42.2405 32.8138 39.5407 29.4525 37.5258L29.2276 37.901C32.5561 39.8963 36.0275 42.5663 39.1226 46.2432L39.4572 45.9614ZM59.2842 102.506C57.9713 83.2222 55.4969 61.8809 39.444 45.947L39.1358 46.2575C55.0604 62.0641 57.5345 83.2469 58.8477 102.536L59.2842 102.506ZM59.6086 104.709C59.5039 103.947 59.395 103.207 59.282 102.487L58.8498 102.555C58.9624 103.272 59.0708 104.009 59.1752 104.768L59.6086 104.709ZM59.2117 104.445C59.1995 104.532 59.1873 104.621 59.1752 104.709L59.6086 104.768C59.6207 104.68 59.6328 104.593 59.645 104.505L59.2117 104.445ZM59.6467 104.489C60.9619 84.2894 63.1061 61.7073 80.5036 45.2747L80.2032 44.9567C62.6662 61.521 60.5244 84.2753 59.2101 104.461L59.6467 104.489ZM89.3291 37.5258C86.2747 39.3565 83.0963 41.7535 80.191 44.9691L80.5157 45.2623C83.3866 42.0846 86.5293 39.7139 89.554 37.901L89.3291 37.5258ZM89.7353 37.7781L89.6291 37.6009L89.2539 37.8258L89.3601 38.003L89.7353 37.7781ZM89.2539 37.8258L89.36 38.0029L89.7353 37.7781L89.6292 37.601L89.2539 37.8258ZM93.6653 33.9375C93.0746 34.8719 91.7407 36.0811 89.3292 37.5257L89.554 37.901C91.9822 36.4464 93.3885 35.1942 94.0351 34.1712L93.6653 33.9375ZM94.0314 32.8386C94.0479 33.1117 93.9576 33.4751 93.6653 33.9375L94.0351 34.1712C94.3584 33.6597 94.4918 33.2056 94.4681 32.8122L94.0314 32.8386ZM93.6691 32.1458C93.8991 32.3482 94.0156 32.5768 94.0314 32.8386L94.4681 32.8122C94.4443 32.4189 94.2635 32.0861 93.9581 31.8174L93.6691 32.1458ZM90.8971 31.439C92.2063 31.4367 93.1801 31.7155 93.6691 32.1458L93.9581 31.8174C93.3476 31.2801 92.2396 30.9992 90.8964 31.0015L90.8971 31.439ZM86.5801 32.2937C88.0855 31.7155 89.6112 31.4412 90.8971 31.439L90.8964 31.0015C89.5531 31.0038 87.9747 31.2894 86.4232 31.8853L86.5801 32.2937ZM74.5367 39.3876C78.7208 36.5492 82.9217 33.7009 86.5802 32.2936L86.4231 31.8853C82.7073 33.3146 78.4604 36.1972 74.2911 39.0255L74.5367 39.3876ZM72.4211 40.8176C73.1233 40.3464 73.8296 39.8673 74.5367 39.3876L74.2911 39.0255C73.5838 39.5054 72.8785 39.9839 72.1773 40.4543L72.4211 40.8176ZM65.4352 45.0911C67.6318 43.9674 70.0049 42.4386 72.4211 40.8176L72.1773 40.4543C69.762 42.0747 67.4076 43.5907 65.236 44.7016L65.4352 45.0911ZM59.3919 46.9559C61.183 46.9559 63.2483 46.2099 65.4352 45.0911L65.236 44.7016C63.0644 45.8126 61.0757 46.5184 59.3919 46.5184V46.9559ZM53.3506 45.0911C55.5364 46.2099 57.6008 46.9559 59.3919 46.9559V46.5184C57.7081 46.5184 55.7203 45.8126 53.5499 44.7016L53.3506 45.0911ZM46.3688 40.8175C48.7837 42.4385 51.1552 43.9673 53.3506 45.0911L53.5499 44.7016C51.3796 43.5907 49.0266 42.0747 46.6126 40.4543L46.3688 40.8175ZM44.2631 39.3936C44.9669 39.8712 45.6699 40.3484 46.3688 40.8175L46.6126 40.4543C45.9148 39.9859 45.2128 39.5094 44.5088 39.0316L44.2631 39.3936ZM32.2108 32.2937C35.8748 33.7019 40.0781 36.5532 44.2631 39.3936L44.5088 39.0316C40.3386 36.2012 36.0891 33.3156 32.3677 31.8853L32.2108 32.2937ZM59.609 106.398C59.5931 106.27 59.5771 106.143 59.561 106.017L59.1271 106.072C59.1431 106.198 59.159 106.325 59.1749 106.452L59.609 106.398ZM59.2853 105.533C59.2479 105.818 59.2111 106.106 59.1749 106.398L59.609 106.452C59.6451 106.161 59.6818 105.874 59.7191 105.59L59.2853 105.533ZM69.5078 79.9292C64.7406 83.7933 61.2453 90.5727 59.2853 105.533L59.7191 105.59C61.6746 90.6635 65.1491 84.0253 69.7833 80.269L69.5078 79.9292ZM89.4415 37.7134C84.6119 40.6082 79.4767 44.9219 75.6145 51.6606C71.7522 58.3995 69.1709 67.5493 69.4269 80.1036L69.8642 80.0946C69.6096 67.6067 72.1772 58.5377 75.9941 51.8781C79.811 45.2185 84.8854 40.9543 89.6664 38.0886L89.4415 37.7134ZM86.5016 32.0895C88.03 31.5025 89.5821 31.2225 90.8967 31.2202C92.223 31.2179 93.2639 31.4978 93.8136 31.9816C94.0813 32.2172 94.2299 32.4978 94.2497 32.8254C94.2698 33.1587 94.158 33.5674 93.8502 34.0543C93.2316 35.033 91.8614 36.2638 89.4416 37.7134L89.6664 38.0887C92.103 36.629 93.5454 35.3553 94.22 34.2881C94.5588 33.7521 94.7138 33.2526 94.6864 32.799C94.6587 32.3398 94.4455 31.955 94.1026 31.6532C93.4313 31.0624 92.2562 30.7804 90.896 30.7828C89.5241 30.7851 87.9192 31.0764 86.3447 31.6811L86.5016 32.0895ZM74.4098 39.2093C78.5914 36.3723 82.8174 33.5066 86.5017 32.0895L86.3446 31.6811C82.603 33.1204 78.3311 36.0202 74.1641 38.8473L74.4098 39.2093ZM59.3919 46.7371C61.3787 46.7371 63.7476 45.7875 66.2953 44.3864C68.8496 42.9818 71.6186 41.1029 74.4098 39.2093L74.1641 38.8473C71.3684 40.7441 68.6173 42.6103 66.0845 44.0031C63.5452 45.3995 61.2601 46.2997 59.3919 46.2997V46.7371ZM44.39 39.2152C47.1784 41.1079 49.9439 42.9852 52.4951 44.3886C55.0398 45.7884 57.4062 46.7371 59.3919 46.7371V46.2997C57.5248 46.2997 55.2422 45.4005 52.706 44.0053C50.1762 42.6137 47.4287 40.749 44.6357 38.8533L44.39 39.2152ZM32.2892 32.0895C35.9791 33.5077 40.2075 36.3763 44.39 39.2152L44.6357 38.8533C40.4679 36.0243 36.1934 33.1214 32.4462 31.6811L32.2892 32.0895ZM29.34 37.7134C26.9202 36.2638 25.55 35.0326 24.9315 34.0534C24.6238 33.5662 24.5121 33.1572 24.5323 32.8236C24.5523 32.4957 24.7011 32.2148 24.9691 31.979C25.5194 31.4948 26.5612 31.2147 27.8887 31.2173C29.2046 31.2199 30.7584 31.5007 32.2892 32.0895L32.4462 31.6811C30.8694 31.0747 29.2628 30.7825 27.8896 30.7798C26.528 30.7771 25.352 31.0594 24.6801 31.6506C24.3369 31.9525 24.1236 32.3376 24.0957 32.7971C24.0681 33.251 24.2229 33.7508 24.5617 34.2871C25.2361 35.3548 26.6786 36.629 29.1152 38.0887L29.34 37.7134ZM41.3879 48.8424C37.8025 43.6844 33.4599 40.1831 29.34 37.7134L29.1151 38.0886C33.1942 40.5339 37.4861 43.9956 41.0287 49.0921L41.3879 48.8424ZM49.2796 79.9951C49.5721 65.6679 46.17 55.7751 41.3884 48.843L41.0283 49.0914C45.7499 55.9367 49.1331 65.736 48.8422 79.9861L49.2796 79.9951ZM49.2775 79.885L49.1992 79.8211L48.9227 80.1601L49.001 80.224L49.2775 79.885ZM49.357 80.1035L49.3579 80.0589L48.9205 80.05L48.9196 80.0947L49.357 80.1035ZM52.683 83.5614C51.6323 82.0985 50.4947 80.9174 49.2761 79.9292L49.0006 80.269C50.1892 81.2329 51.2999 82.3856 52.3277 83.8166L52.683 83.5614ZM59.5285 106.265C58.0899 94.7305 55.7695 87.9179 52.6839 83.5626L52.3269 83.8155C55.3501 88.0827 57.6588 94.8093 59.0944 106.319L59.5285 106.265ZM59.5282 106.33C59.5285 106.326 59.5287 106.322 59.529 106.318C59.5293 106.314 59.5295 106.31 59.5298 106.306L59.0932 106.278C59.0929 106.282 59.0927 106.286 59.0924 106.29C59.0921 106.294 59.0919 106.298 59.0916 106.302L59.5282 106.33ZM59.0952 106.271C59.0944 106.277 59.0936 106.283 59.0928 106.289L59.527 106.343C59.5278 106.337 59.5285 106.331 59.5293 106.325L59.0952 106.271ZM59.5316 106.289C59.5309 106.283 59.53 106.277 59.5293 106.271L59.0952 106.325C59.096 106.331 59.0967 106.337 59.0975 106.343L59.5316 106.289ZM59.0947 106.306L59.0963 106.33L59.5328 106.302L59.5313 106.278L59.0947 106.306ZM59.127 106.017C59.1166 106.099 59.1062 106.182 59.0959 106.265L59.53 106.319C59.5403 106.236 59.5507 106.154 59.561 106.072L59.127 106.017ZM59.5498 105.929C59.5328 105.796 59.5157 105.664 59.4985 105.533L59.0647 105.59C59.0819 105.721 59.0989 105.852 59.1159 105.985L59.5498 105.929ZM59.4985 105.533L59.4684 105.305L59.0347 105.362L59.0647 105.59L59.4985 105.533ZM59.0332 105.347L59.0939 106.294L59.5305 106.266L59.4698 105.319L59.0332 105.347ZM59.5305 106.294C59.5374 106.186 59.5443 106.079 59.5512 105.971L59.1146 105.943C59.1077 106.051 59.1008 106.158 59.0939 106.266L59.5305 106.294Z" fill="#393353" mask="url(#path-6-inside-1_676_446)"/>
<path d="M32.3311 111.755L32.4652 111.399L33.6566 111.847L35.1391 107.911L35.569 108.073L34.0865 112.009L35.284 112.46L35.1499 112.816L32.3311 111.755Z" fill="black"/>
<path d="M26.0062 107.808L28.1931 103.776L28.5969 103.995L27.5739 105.881L29.7601 107.067L30.7831 105.181L31.1869 105.4L29 109.432L28.5962 109.213L29.5786 107.402L27.3924 106.216L26.41 108.027L26.0062 107.808Z" fill="black"/>
<path d="M22.7398 100.741L24.4273 101.969L25.3918 101.323L25.7845 101.609L21.7676 104.286L21.3484 103.981L22.6643 99.339L23.057 99.6247L22.7398 100.741ZM22.6274 101.13L21.9003 103.669L24.0919 102.195L22.6274 101.13Z" fill="black"/>
<path d="M14.4445 96.5086L17.6678 93.3286L17.9904 93.6556L15.4164 96.195L19.1241 94.8048L19.3592 95.043L17.9283 98.7224L20.4929 96.1922L20.8155 96.5192L17.5923 99.6992L17.2512 99.3535L18.8142 95.3502L14.7901 96.859L14.4445 96.5086Z" fill="black"/>
<path d="M12.2307 89.5314C12.1216 89.2926 12.1031 89.0381 12.1752 88.7681C12.2473 88.4981 12.3997 88.2812 12.6322 88.1176C12.8219 87.9842 13.0276 87.9117 13.2494 87.9001C13.4652 87.8874 13.6819 87.9408 13.8998 88.0604C14.114 88.1824 14.3105 88.3705 14.4892 88.6245L15.4029 89.9234L11.6513 92.5626L10.764 91.3013C10.4972 90.922 10.3822 90.5723 10.4191 90.2522C10.4535 89.9285 10.6102 89.6685 10.8893 89.4721C11.1219 89.3085 11.3555 89.2377 11.5903 89.2598C11.8216 89.2843 12.035 89.3748 12.2307 89.5314ZM13.0454 91.0202L12.43 90.1454C12.2513 89.8913 12.0551 89.7379 11.8413 89.6849C11.6215 89.631 11.406 89.6783 11.1949 89.8268C10.9874 89.9728 10.8737 90.1571 10.8538 90.3797C10.8313 90.5987 10.9133 90.8406 11.0995 91.1054L11.7036 91.9642L13.0454 91.0202ZM14.1914 88.8741C14.0001 88.6022 13.7872 88.4364 13.5527 88.3767C13.3156 88.3135 13.0844 88.3612 12.859 88.5198C12.6335 88.6783 12.5113 88.8847 12.4922 89.1388C12.4669 89.3919 12.5487 89.6527 12.7375 89.921L13.3567 90.8012L14.822 89.7705L14.1914 88.8741Z" fill="black"/>
<path d="M9.8975 82.5363L10.8631 84.3863L12.014 84.2371L12.2387 84.6675L7.4504 85.2793L7.21051 84.8197L10.4533 81.2469L10.678 81.6774L9.8975 82.5363ZM9.62385 82.8346L7.84391 84.7852L10.4619 84.4402L9.62385 82.8346Z" fill="black"/>
<path d="M4.3482 77.7292L4.70296 77.5913L5.16411 78.7779L9.08481 77.2542L9.25121 77.6823L5.33051 79.2061L5.79405 80.3988L5.43929 80.5366L4.3482 77.7292Z" fill="black"/>
<path d="M2.8546 71.8076L3.22044 71.7026L3.57162 72.9262L7.61479 71.7659L7.74151 72.2074L3.69834 73.3678L4.05133 74.5978L3.68549 74.7027L2.8546 71.8076Z" fill="black"/>
<path d="M2.01797 65.6831L5.0344 66.6389L6.79166 66.3258L6.87222 66.7781L5.11496 67.0911L2.61641 69.0426L2.52549 68.5322L4.66121 66.9386L2.10774 66.1871L2.01797 65.6831Z" fill="black"/>
<path d="M2.67576 54.1009L7.21282 55.9662L7.19828 56.491L2.56489 58.1023L2.5787 57.6037L6.70701 56.2148L2.66231 54.5863L2.67576 54.1009Z" fill="black"/>
<path d="M2.92764 49.7571L7.47096 50.3885L7.40773 50.8435L2.86441 50.2121L2.92764 49.7571Z" fill="black"/>
<path d="M4.47532 42.5811L8.53384 45.3366L8.41207 45.8473L3.54682 46.4749L3.6625 45.9897L7.98783 45.4763L4.36268 43.0535L4.47532 42.5811Z" fill="black"/>
<path d="M6.14809 38.5626L7.75171 39.1642L8.36249 37.536L8.71885 37.6697L8.10807 39.2979L9.73627 39.9086L10.4162 38.0961L10.7726 38.2298L9.9313 40.4724L5.63039 38.859L6.47165 36.6164L6.82801 36.7501L6.14809 38.5626Z" fill="black"/>
<path d="M14.0687 32.5372L11.2657 33.3051L13.1398 34.2953L12.9252 34.7014L8.86949 32.5586L9.08408 32.1524L10.9814 33.1549L10.013 30.3944L10.2858 29.878L11.3083 32.8452L14.3507 32.0034L14.0687 32.5372Z" fill="black"/>
<path d="M16.4539 26.7073L15.2529 28.4138L15.9133 29.3681L15.6339 29.7652L12.8941 25.7908L13.1925 25.3669L17.8546 26.6098L17.5751 27.0069L16.4539 26.7073ZM16.0634 26.6009L13.5137 25.9139L15.021 28.0821L16.0634 26.6009Z" fill="black"/>
<path d="M22.4546 21.6064L22.1431 21.9439L17.5851 21.1936L20.4208 23.8103L20.1093 24.1479L16.7383 21.0372L17.0498 20.6996L21.6029 21.4455L18.772 18.8332L19.0835 18.4957L22.4546 21.6064Z" fill="black"/>
<path d="M26.1622 16.4749L24.5575 17.809L24.9461 18.9025L24.5727 19.213L22.9649 14.6613L23.3635 14.3299L27.5398 16.7463L27.1664 17.0567L26.1622 16.4749ZM25.8129 16.2704L23.5308 14.9418L24.4202 17.4282L25.8129 16.2704Z" fill="black"/>
<path d="M32.8701 13.484L32.4813 13.7286L28.277 11.815L30.3317 15.081L29.9429 15.3256L27.5003 11.4431L27.8891 11.1984L32.0899 13.1065L30.0387 9.84609L30.4275 9.60148L32.8701 13.484Z" fill="black"/>
<path d="M35.081 7.06728C35.5429 6.85703 35.9771 6.76031 36.3837 6.7771C36.7903 6.7939 37.1528 6.9197 37.4712 7.1545C37.7896 7.38931 38.0476 7.72371 38.2451 8.15772C38.4409 8.58774 38.5227 8.9999 38.4907 9.39421C38.4569 9.78453 38.3128 10.1385 38.0585 10.4562C37.8023 10.7699 37.4433 11.0318 36.9814 11.2421L35.7451 11.8049L33.8447 7.63005L35.081 7.06728ZM36.8237 10.8957C37.405 10.6311 37.7781 10.2786 37.943 9.83821C38.11 9.39206 38.0694 8.89624 37.8211 8.35075C37.5709 7.80127 37.2228 7.44302 36.7767 7.27599C36.3327 7.10317 35.82 7.14907 35.2387 7.41369L34.4205 7.78615L36.0055 11.2681L36.8237 10.8957Z" fill="black"/>
<path d="M43.4874 7.27945L41.4909 7.88652L41.4248 9.04518L40.9602 9.18645L41.244 4.36756L41.7399 4.21674L44.6519 8.06394L44.1873 8.20521L43.4874 7.27945ZM43.2448 6.95539L41.6568 4.8456L41.512 7.48228L43.2448 6.95539Z" fill="black"/>
<path d="M49.5206 7.36953L48.0526 5.69458L47.2205 5.85012L47.5726 7.73366L47.1211 7.81806L46.2782 3.30916L47.6329 3.05596C48.136 2.96192 48.5391 3.01119 48.8421 3.20378C49.1494 3.39556 49.3397 3.68712 49.4128 4.07845C49.4739 4.40527 49.4316 4.70248 49.2858 4.97007C49.1434 5.23255 48.896 5.43235 48.5433 5.56948L50.0625 7.26825L49.5206 7.36953ZM47.1518 5.48244L48.0613 5.31243C48.4139 5.24652 48.6623 5.11108 48.8065 4.90611C48.955 4.70033 49.0023 4.45338 48.9484 4.16526C48.8929 3.86854 48.7643 3.6567 48.5626 3.52974C48.36 3.39848 48.0738 3.36741 47.704 3.43654L46.8009 3.60534L47.1518 5.48244Z" fill="black"/>
<path d="M55.9987 2.03455L56.1308 6.61963L55.6716 6.63286L55.5396 2.04777L55.9987 2.03455Z" fill="black"/>
<path d="M59.7433 5.97741L61.3887 6.05249L61.3717 6.42615L59.2674 6.33013L59.4765 1.74791L59.9353 1.76885L59.7433 5.97741Z" fill="black"/>
<path d="M64.4638 6.00915L66.0996 6.2024L66.0557 6.57386L63.9638 6.32673L64.5019 1.77142L64.9581 1.82531L64.4638 6.00915Z" fill="black"/>
<path d="M71.3871 6.28062L69.3498 5.82851L68.723 6.80524L68.249 6.70004L70.8636 2.64219L71.3697 2.75451L72.0159 7.53601L71.5418 7.4308L71.3871 6.28062ZM71.335 5.8792L70.9883 3.2614L69.5668 5.4868L71.335 5.8792Z" fill="black"/>
<path d="M76.7766 4.1962L75.3372 8.55152L74.9011 8.40738L76.3404 4.05206L76.7766 4.1962Z" fill="black"/>
<path d="M82.2999 7.4878C82.3039 7.15867 82.2172 6.8607 82.0397 6.59389C81.868 6.32488 81.6166 6.11595 81.2854 5.9671C80.9741 5.82722 80.6625 5.77352 80.3506 5.80598C80.0386 5.83845 79.7507 5.95607 79.4869 6.15887C79.2249 6.35767 79.015 6.63265 78.8572 6.9838C78.6994 7.33495 78.6322 7.67648 78.6557 8.00839C78.6792 8.34031 78.7824 8.63369 78.9652 8.88852C79.1481 9.14336 79.3951 9.34072 79.7064 9.48061C79.9977 9.61152 80.2868 9.66713 80.5739 9.64745C80.8667 9.62556 81.1349 9.53028 81.3786 9.36161C81.6281 9.19074 81.8327 8.95416 81.9925 8.65188L80.2328 7.86102L80.3861 7.51985L82.5888 8.50977L82.4516 8.81503C82.2667 9.17318 82.0172 9.46154 81.7031 9.68011C81.3908 9.8947 81.0445 10.0196 80.6641 10.0549C80.2877 10.092 79.912 10.0263 79.5369 9.85769C79.1498 9.68374 78.839 9.43614 78.6045 9.1149C78.3717 8.78967 78.2362 8.4242 78.1979 8.01849C78.1654 7.61058 78.2415 7.20112 78.4262 6.79012C78.6109 6.37911 78.8657 6.05235 79.1905 5.80983C79.5212 5.56512 79.8844 5.42381 80.2804 5.38592C80.6781 5.34404 81.0705 5.41008 81.4576 5.58403C81.9045 5.78488 82.2453 6.07236 82.4801 6.44646C82.7148 6.82056 82.8184 7.2412 82.7907 7.70839L82.2999 7.4878Z" fill="black"/>
<path d="M86.7993 13.4701L86.4093 13.2273L86.2923 8.6095L84.2533 11.8853L83.8633 11.6426L86.2873 7.74836L86.6772 7.9911L86.7977 12.6034L88.8333 9.33311L89.2232 9.57586L86.7993 13.4701Z" fill="black"/>
<path d="M92.2185 15.5529L90.6075 14.2266L89.6061 14.8132L89.2312 14.5045L93.4009 12.0723L93.8011 12.4018L92.2101 16.957L91.8352 16.6483L92.2185 15.5529ZM92.3541 15.1715L93.2315 12.6808L90.9558 14.0203L92.3541 15.1715Z" fill="black"/>
<path d="M96.3952 20.287L96.977 18.1371L96.3867 17.5304L95.0133 18.8665L94.693 18.5373L97.9808 15.3387L98.9417 16.3265C99.2986 16.6933 99.4808 17.0563 99.4883 17.4152C99.4987 17.7773 99.3613 18.0972 99.076 18.3748C98.8377 18.6067 98.5667 18.736 98.2632 18.7627C97.9658 18.7896 97.6624 18.6941 97.3529 18.4764L96.7796 20.6821L96.3952 20.287ZM96.6548 17.2695L97.3001 17.9327C97.5502 18.1899 97.8005 18.3217 98.051 18.3282C98.3046 18.3379 98.5364 18.2406 98.7465 18.0362C98.9629 17.8257 99.068 17.6013 99.062 17.363C99.0592 17.1216 98.9266 16.8661 98.6642 16.5964L98.0236 15.9379L96.6548 17.2695Z" fill="black"/>
<path d="M104.509 29.3062L104.26 28.92L106.128 24.6951L102.885 26.7853L102.636 26.3992L106.491 23.9144L106.74 24.3006L104.878 28.5219L108.116 26.4352L108.365 26.8214L104.509 29.3062Z" fill="black"/>
<path d="M108.842 35.3713L107.979 33.4711L106.822 33.5568L106.621 33.1146L111.436 32.767L111.65 33.239L108.216 36.6282L108.015 36.186L108.842 35.3713ZM109.131 35.0885L111.016 33.2387L108.383 33.4392L109.131 35.0885Z" fill="black"/>
<path d="M110.969 42.38L112.438 40.7059L112.175 39.9012L110.354 40.4961L110.211 40.0595L114.571 38.6354L114.999 39.9454C115.158 40.4319 115.162 40.838 115.01 41.1636C114.86 41.4933 114.596 41.72 114.218 41.8436C113.902 41.9468 113.602 41.9436 113.317 41.834C113.038 41.7271 112.808 41.5078 112.626 41.1761L111.14 42.904L110.969 42.38ZM112.531 39.7851L112.818 40.6647C112.929 41.0057 113.096 41.2343 113.318 41.3504C113.541 41.4708 113.792 41.4854 114.071 41.3944C114.358 41.3007 114.551 41.1456 114.651 40.929C114.755 40.711 114.748 40.4232 114.631 40.0656L114.346 39.1923L112.531 39.7851Z" fill="black"/>
<path d="M116.385 48.7727C115.999 48.852 115.663 48.7895 115.375 48.5852C115.087 48.3808 114.892 48.0258 114.788 47.5202L114.601 46.6139L112.686 47.0079L112.593 46.558L117.086 45.6337L117.365 46.99C117.468 47.4913 117.428 47.8926 117.244 48.1939C117.061 48.4995 116.775 48.6924 116.385 48.7727ZM115.173 47.4409C115.318 48.1436 115.69 48.4333 116.29 48.3099C116.59 48.2482 116.8 48.1179 116.92 47.919C117.04 47.7202 117.062 47.4365 116.986 47.068L116.799 46.1617L114.987 46.5346L115.173 47.4409Z" fill="black"/>
<path d="M114.911 54.5846L114.763 52.503L113.648 52.1809L113.614 51.6965L118.249 53.045L118.285 53.5621L113.887 55.5454L113.852 55.061L114.911 54.5846ZM115.281 54.4202L117.691 53.3411L115.152 52.6135L115.281 54.4202Z" fill="black"/>
<path d="M113.983 62.796L114.011 62.3375L118.018 60.0383L114.166 59.8027L114.194 59.3442L118.773 59.6242L118.745 60.0827L114.745 62.3824L118.59 62.6176L118.562 63.0761L113.983 62.796Z" fill="black"/>
<path d="M117.828 68.0691L113.302 67.3189L113.378 66.8657L117.903 67.6159L117.828 68.0691Z" fill="black"/>
<path d="M115.727 78.3322L111.498 76.7153L111.662 76.2863L115.039 77.5774L112.238 74.7784L112.358 74.4658L116.299 74.2444L112.934 72.9579L113.098 72.5288L117.328 74.1457L117.154 74.5993L112.863 74.8346L115.903 77.8725L115.727 78.3322Z" fill="black"/>
<path d="M109.875 84.3426L110.749 82.4475L109.927 81.6279L110.13 81.1869L113.542 84.6022L113.325 85.073L108.515 84.691L108.718 84.25L109.875 84.3426ZM110.278 84.3768L112.91 84.5928L111.037 82.732L110.278 84.3768Z" fill="black"/>
<path d="M104.274 91.2715L104.511 90.8776L109.126 90.6858L105.818 88.7001L106.054 88.3063L109.987 90.6668L109.751 91.0607L105.141 91.2558L108.444 93.2382L108.207 93.632L104.274 91.2715Z" fill="black"/>
<path d="M104.327 99.1489C103.966 99.5052 103.591 99.7455 103.204 99.8696C102.816 99.9938 102.432 100 102.053 99.8895C101.673 99.7786 101.316 99.5534 100.981 99.2139C100.649 98.8775 100.43 98.5187 100.325 98.1374C100.222 97.7593 100.236 97.3774 100.365 96.9916C100.498 96.6089 100.745 96.2394 101.106 95.883L102.073 94.9292L105.294 98.195L104.327 99.1489ZM101.373 96.154C100.919 96.6025 100.69 97.0619 100.686 97.5321C100.683 98.0084 100.892 98.46 101.313 98.8867C101.737 99.3166 102.187 99.5331 102.663 99.5364C103.139 99.5459 103.605 99.3264 104.06 98.8779L104.7 98.2466L102.013 95.5227L101.373 96.154Z" fill="black"/>
<path d="M94.8713 101.599L96.9476 102.405L97.6134 101.882L96.43 100.375L96.7913 100.091L99.6242 103.699L98.5403 104.55C98.1378 104.866 97.7576 105.009 97.3999 104.978C97.0387 104.95 96.7351 104.78 96.4893 104.467C96.2839 104.205 96.184 103.922 96.1895 103.618C96.1942 103.319 96.3212 103.027 96.5705 102.743L94.4378 101.939L94.8713 101.599ZM97.8444 102.176L97.1167 102.748C96.8346 102.969 96.677 103.204 96.644 103.453C96.6076 103.704 96.6798 103.944 96.8609 104.175C97.0473 104.412 97.2593 104.541 97.4969 104.56C97.7372 104.583 98.0053 104.478 98.3012 104.245L99.0238 103.678L97.8444 102.176Z" fill="black"/>
<path d="M90.0285 106.983L91.7628 105.823L91.4898 104.695L91.8934 104.425L93.0205 109.119L92.5896 109.407L88.6864 106.57L89.09 106.3L90.0285 106.983ZM90.3546 107.223L92.4866 108.781L91.86 106.216L90.3546 107.223Z" fill="black"/>
<path d="M83.5677 114.535L81.5822 110.466L81.995 110.265L83.5805 113.514L83.4459 109.557L83.7466 109.41L86.7772 111.94L85.1975 108.702L85.6103 108.501L87.5958 112.57L87.1594 112.783L83.8639 110.024L84.01 114.32L83.5677 114.535Z" fill="black"/>
<path d="M71.8131 113.476L71.964 114.844L70.71 115.41L72.0573 115.689L72.2082 117.057L72.8899 115.862L74.2372 116.141L73.3113 115.123L73.993 113.928L72.739 114.494L71.8131 113.476Z" fill="black"/>
<path d="M47.2821 113.476L47.1312 114.844L48.3852 115.41L47.038 115.689L46.887 117.057L46.2053 115.862L44.858 116.141L45.784 115.123L45.1022 113.928L46.3562 114.494L47.2821 113.476Z" fill="black"/>
<path d="M56.1167 109.531C55.8881 109.466 55.7214 109.385 55.6168 109.29C55.5132 109.194 55.4613 109.075 55.4613 108.934C55.4613 108.775 55.5247 108.644 55.6515 108.54C55.7793 108.436 55.945 108.383 56.1486 108.383C56.2875 108.383 56.4111 108.41 56.5194 108.464C56.6286 108.517 56.7128 108.591 56.7721 108.686C56.8322 108.78 56.8623 108.884 56.8623 108.996H56.5943C56.5943 108.873 56.5555 108.778 56.4777 108.708C56.3999 108.638 56.2903 108.603 56.1486 108.603C56.0172 108.603 55.9144 108.632 55.8404 108.69C55.7673 108.747 55.7307 108.828 55.7307 108.93C55.7307 109.013 55.7654 109.083 55.8348 109.14C55.9052 109.196 56.0241 109.248 56.1917 109.295C56.3601 109.343 56.4916 109.395 56.586 109.452C56.6813 109.509 56.7517 109.575 56.7971 109.651C56.8433 109.727 56.8665 109.816 56.8665 109.919C56.8665 110.083 56.8026 110.214 56.6749 110.313C56.5471 110.411 56.3763 110.46 56.1625 110.46C56.0237 110.46 55.8941 110.434 55.7737 110.381C55.6534 110.328 55.5604 110.254 55.4947 110.162C55.4299 110.069 55.3975 109.964 55.3975 109.847H55.6654C55.6654 109.969 55.7103 110.066 55.8001 110.137C55.8908 110.207 56.0116 110.242 56.1625 110.242C56.3032 110.242 56.4111 110.214 56.486 110.156C56.561 110.099 56.5985 110.021 56.5985 109.922C56.5985 109.823 56.5638 109.746 56.4944 109.693C56.4249 109.638 56.299 109.584 56.1167 109.531ZM57.4483 110.433H57.1914V108.93H57.4483V110.433ZM57.1706 108.532C57.1706 108.49 57.1831 108.455 57.208 108.426C57.234 108.398 57.2719 108.383 57.3219 108.383C57.3719 108.383 57.4098 108.398 57.4358 108.426C57.4617 108.455 57.4746 108.49 57.4746 108.532C57.4746 108.573 57.4617 108.608 57.4358 108.636C57.4098 108.664 57.3719 108.678 57.3219 108.678C57.2719 108.678 57.234 108.664 57.208 108.636C57.1831 108.608 57.1706 108.573 57.1706 108.532ZM58.1036 108.93L58.112 109.119C58.2267 108.975 58.3767 108.903 58.5618 108.903C58.8793 108.903 59.0395 109.082 59.0422 109.44V110.433H58.7854V109.438C58.7844 109.33 58.7595 109.25 58.7104 109.198C58.6623 109.146 58.5868 109.12 58.4841 109.12C58.4008 109.12 58.3276 109.143 58.2647 109.187C58.2017 109.232 58.1527 109.29 58.1175 109.362V110.433H57.8606V108.93H58.1036ZM60.0322 110.251C60.1239 110.251 60.2039 110.223 60.2724 110.167C60.3409 110.112 60.3789 110.042 60.3863 109.959H60.6293C60.6247 110.045 60.595 110.127 60.5404 110.205C60.4858 110.283 60.4127 110.345 60.321 110.391C60.2303 110.437 60.1341 110.46 60.0322 110.46C59.8277 110.46 59.6647 110.392 59.5435 110.256C59.4231 110.119 59.363 109.932 59.363 109.695V109.652C59.363 109.506 59.3898 109.376 59.4435 109.262C59.4972 109.148 59.574 109.06 59.674 108.997C59.7749 108.934 59.8938 108.903 60.0308 108.903C60.1993 108.903 60.3391 108.953 60.4502 109.054C60.5622 109.155 60.6219 109.286 60.6293 109.447H60.3863C60.3789 109.35 60.3419 109.27 60.2752 109.208C60.2095 109.145 60.128 109.114 60.0308 109.114C59.9003 109.114 59.799 109.161 59.7268 109.255C59.6555 109.349 59.6199 109.484 59.6199 109.662V109.711C59.6199 109.884 59.6555 110.017 59.7268 110.11C59.798 110.204 59.8999 110.251 60.0322 110.251ZM61.5415 110.46C61.3379 110.46 61.1722 110.394 61.0444 110.26C60.9167 110.126 60.8528 109.947 60.8528 109.723V109.676C60.8528 109.527 60.8811 109.394 60.9375 109.277C60.9949 109.16 61.0745 109.068 61.1763 109.002C61.2791 108.936 61.3902 108.903 61.5096 108.903C61.7049 108.903 61.8567 108.967 61.965 109.096C62.0733 109.224 62.1275 109.408 62.1275 109.648V109.755H61.1097C61.1134 109.903 61.1564 110.023 61.2388 110.115C61.3221 110.205 61.4277 110.251 61.5554 110.251C61.6461 110.251 61.723 110.232 61.7859 110.195C61.8488 110.158 61.9039 110.109 61.9511 110.048L62.108 110.17C61.9821 110.364 61.7933 110.46 61.5415 110.46ZM61.5096 109.114C61.4059 109.114 61.3189 109.152 61.2486 109.227C61.1782 109.302 61.1347 109.408 61.118 109.544H61.8706V109.525C61.8632 109.394 61.828 109.293 61.7651 109.222C61.7021 109.15 61.617 109.114 61.5096 109.114Z" fill="black"/>
<path d="M56.1701 117.151H53.5208V116.782L54.9204 115.226C55.1278 114.991 55.2703 114.801 55.3481 114.654C55.4277 114.506 55.4675 114.354 55.4675 114.196C55.4675 113.985 55.4036 113.812 55.2759 113.677C55.1481 113.542 54.9778 113.474 54.7649 113.474C54.5094 113.474 54.3104 113.547 54.1679 113.694C54.0272 113.838 53.9568 114.04 53.9568 114.299H53.4431C53.4431 113.927 53.5625 113.626 53.8013 113.396C54.042 113.167 54.3632 113.052 54.7649 113.052C55.1407 113.052 55.4379 113.151 55.6563 113.349C55.8748 113.545 55.984 113.807 55.984 114.135C55.984 114.533 55.7304 115.007 55.2231 115.557L54.1401 116.732H56.1701V117.151ZM59.2497 115.426C59.2497 116.028 59.147 116.475 58.9415 116.768C58.736 117.06 58.4148 117.206 57.9779 117.206C57.5465 117.206 57.2272 117.064 57.0198 116.779C56.8125 116.492 56.7051 116.064 56.6977 115.496V114.81C56.6977 114.216 56.8004 113.774 57.0059 113.485C57.2114 113.196 57.5336 113.052 57.9723 113.052C58.4074 113.052 58.7277 113.192 58.9332 113.471C59.1387 113.749 59.2442 114.179 59.2497 114.76V115.426ZM58.736 114.724C58.736 114.289 58.6749 113.972 58.5527 113.774C58.4305 113.574 58.2371 113.474 57.9723 113.474C57.7094 113.474 57.5178 113.573 57.3975 113.771C57.2772 113.969 57.2151 114.274 57.2114 114.685V115.507C57.2114 115.944 57.2744 116.267 57.4003 116.476C57.528 116.683 57.7205 116.787 57.9779 116.787C58.2315 116.787 58.4194 116.689 58.5416 116.493C58.6656 116.296 58.7304 115.987 58.736 115.565V114.724ZM61.5963 117.151H61.0798V113.727L60.044 114.107V113.641L61.5158 113.088H61.5963V117.151ZM65.0703 115.374C64.9629 115.501 64.8342 115.604 64.6843 115.682C64.5362 115.76 64.3733 115.798 64.1955 115.798C63.9623 115.798 63.7586 115.741 63.5846 115.626C63.4124 115.512 63.2791 115.35 63.1847 115.143C63.0903 114.934 63.0431 114.703 63.0431 114.452C63.0431 114.181 63.094 113.938 63.1958 113.721C63.2995 113.505 63.4458 113.339 63.6346 113.224C63.8234 113.109 64.0437 113.052 64.2955 113.052C64.6954 113.052 65.0101 113.202 65.2397 113.502C65.4711 113.8 65.5868 114.207 65.5868 114.724V114.874C65.5868 115.661 65.4313 116.235 65.1203 116.598C64.8092 116.959 64.3399 117.144 63.7123 117.154H63.6124V116.72H63.7207C64.1446 116.713 64.4705 116.603 64.6982 116.39C64.9259 116.175 65.0499 115.836 65.0703 115.374ZM64.2788 115.374C64.451 115.374 64.6093 115.321 64.7537 115.215C64.9 115.11 65.0064 114.979 65.0731 114.824V114.618C65.0731 114.281 64.9999 114.007 64.8537 113.796C64.7074 113.585 64.5223 113.48 64.2983 113.48C64.0724 113.48 63.891 113.567 63.754 113.741C63.617 113.913 63.5485 114.141 63.5485 114.424C63.5485 114.7 63.6142 114.927 63.7457 115.107C63.879 115.285 64.0567 115.374 64.2788 115.374Z" fill="black"/>
</g>
<defs>
<clipPath id="clip0_676_446">
<rect width="120" height="120" rx="60" fill="white"/>
</clipPath>
</defs>
</svg>
